<?xml version="1.0" encoding="utf-8" ?><svg xmlns="http://www.w3.org/2000/svg" xmlns:xlink="http://www.w3.org/1999/xlink" width="468" height="468" viewBox="0 0 468 468"><path fill="#FEFEFE" d="M234.217 97.6108C236.216 98.4521 249.684 122.98 251.802 126.598L324.176 250.744C330.113 260.948 336.226 271.13 342.171 281.347C347.078 289.781 353.153 298.867 357.355 307.648C354.199 307.857 348.618 307.58 345.241 307.578L321.056 307.659L238.566 307.625C227.097 307.654 214.47 307.225 203.072 307.715C199.27 313.633 196.012 320.413 192.13 326.357C190.723 328.513 189.853 330.986 188.32 333.208C195.132 332.231 205.696 332.975 212.71 333.018L261.207 333.224L334.59 333.264L357.338 333.219C361.789 333.207 367.004 333.055 371.363 333.385C372.057 333.81 373.169 334.625 373.544 335.299C375.5 338.808 388.386 358.636 387.239 360.579C384.917 360.905 381.744 360.671 379.326 360.668L364.632 360.683L320.424 360.677L178.138 360.657L154.337 360.697C152.535 360.699 142.77 360.993 142.059 360.371C141.988 358.884 144.919 354.439 145.86 352.852C157.383 333.434 169.03 314.078 180.672 294.733C184.432 288.485 187.756 281.905 191.391 275.578C197.741 264.666 204.204 253.819 210.776 243.038C215.518 235.211 219.784 227.161 224.61 219.393C226.245 216.761 227.601 214.039 229.446 211.545C230.805 209.078 232.762 205.402 234.491 203.297C243.848 218.393 252.959 233.906 262.22 249.087C263.153 250.616 265.471 253.804 265.498 255.388C264.42 256.257 238.014 255.429 233.799 255.973C229.074 264.189 224.555 272.739 219.685 281.016L310.962 281.013C308.42 276.065 305.689 271.861 302.833 267.112L290.992 247.266C281.548 231.427 272.432 215.203 262.9 199.374L243.278 166.656C240.358 161.704 236.939 156.151 234.263 151.14C233.269 153.656 231.659 156.127 230.346 158.515C227.545 163.607 224.396 168.502 221.462 173.505L192.165 223.282C172.137 258.141 151.78 292.81 131.097 327.285C126.933 334.191 122.998 341.417 118.797 348.346C116.267 352.517 114.429 356.261 111.614 360.369C111.167 360.514 110.747 360.633 110.271 360.647C100.902 360.917 91.5029 360.589 82.1305 360.756C81.5033 360.767 81.4529 360.696 81.0423 360.351C81.0036 359.641 81.1992 358.987 81.543 358.365C89.1422 344.623 97.437 331.185 105.326 317.61L198.253 158.861L224.522 114.239C226.581 110.721 231.91 100.245 234.217 97.6108Z"/></svg>